# xmcd CD database file
#
# Track frame offsets:
#	150
#	31958
#	53756
#	77040
#	104278
#	131052
#	148857
#	174732
#	207082
#	230010
#
# Disc length: 3359 seconds
#
# Revision: 0
# Processed by: cddbd v1.5.2PL0 Copyright (c) Steve Scherf et al.
# Submitted via: CDex 1.51
#
DISCID=8b0d1d0a
DTITLE=Phil Woods, Irio De Paula - Encontro
DYEAR=2000
DGENRE=Jazz
TTITLE0=Eu se que vou te amar
TTITLE1=Samba do viao
TTITLE2=O grande amor
TTITLE3=Corcovado
TTITLE4=A felicidade
TTITLE5=Brigas nunca mais
TTITLE6=Retrato em branco e preto
TTITLE7=Ana Luiza
TTITLE8=Days of wine and roses
TTITLE9=Autumn Leaves
EXTD=YEAR: 2000
EXTT0=
EXTT1=
EXTT2=
EXTT3=
EXTT4=
EXTT5=
EXTT6=
EXTT7=
EXTT8=
EXTT9=
PLAYORDER=
